<svg width="16" height="16" viewBox="0 0 16 16" fill="none" xmlns="http://www.w3.org/2000/svg">
<path d="M6.63636 14H6.39394C5.85522 14 5.40404 13.964 5.0404 13.8921C4.69024 13.8202 4.38047 13.6763 4.11111 13.4606C3.85522 13.2328 3.6532 12.9811 3.50505 12.7054C3.37037 12.4297 3.26263 12.0161 3.18182 11.4647C3.06061 10.6376 3 9.52882 3 8.13831C3 6.73582 3.00673 5.74689 3.0202 5.17151C3.04714 4.59613 3.10101 4.03873 3.18182 3.49931C3.26263 2.9479 3.37037 2.54034 3.50505 2.27663C3.6532 2.00092 3.85522 1.75519 4.11111 1.53942C4.38047 1.31166 4.69024 1.16782 5.0404 1.10788C5.40404 1.03596 5.85522 1 6.39394 1H6.63636V14ZM7.44444 1H10.0101C10.9933 1 11.734 1.14984 12.2323 1.44952C12.7441 1.74919 13 2.27063 13 3.01383V4.63209C13 4.88382 12.9057 5.00968 12.7172 5.00968H10.1717C9.98316 5.00968 9.86869 4.98571 9.82828 4.93776C9.78788 4.88981 9.76768 4.78792 9.76768 4.63209V3.2296C9.76768 3.03781 9.73401 2.90595 9.66667 2.83402C9.61279 2.75012 9.46465 2.70816 9.22222 2.70816H7.44444V1ZM10.1717 9.99032H12.7172C12.9057 9.99032 13 10.1162 13 10.3679V11.9862C13 12.7294 12.7441 13.2508 12.2323 13.5505C11.734 13.8502 10.9933 14 10.0101 14H7.44444V12.2918H9.22222C9.46465 12.2918 9.61279 12.2559 9.66667 12.184C9.73401 12.1 9.76768 11.9622 9.76768 11.7704V10.3679C9.76768 10.2121 9.78788 10.1102 9.82828 10.0622C9.86869 10.0143 9.98316 9.99032 10.1717 9.99032Z" fill="#6562FF"/>
</svg>
